<svg width="37" height="41" viewBox="0 0 37 41" fill="none" xmlns="http://www.w3.org/2000/svg">
<path d="M33.9166 21.207V23.7284C33.9166 30.1943 33.9166 33.4275 32.1104 35.4362C30.3043 37.445 27.3972 37.445 21.5833 37.445H15.4166C9.60259 37.445 6.69561 37.445 4.88942 35.4362C3.08325 33.4275 3.08325 30.1943 3.08325 23.7284V21.207C3.08325 17.4137 3.08325 15.5171 3.88369 13.9448C4.68412 12.3725 6.14647 11.3966 9.07113 9.44501L12.1545 7.3875C15.2461 5.32448 16.7919 4.29297 18.4999 4.29297C20.2079 4.29297 21.7538 5.32448 24.8454 7.3875L27.9288 9.445C30.8534 11.3966 32.3157 12.3725 33.1162 13.9448" stroke="#626262" stroke-width="2" stroke-linecap="round"/>
<path d="M23.125 30.8145H13.875" stroke="#626262" stroke-width="2" stroke-linecap="round"/>
</svg>
