<svg width="47" height="52" viewBox="0 0 47 52" fill="none" xmlns="http://www.w3.org/2000/svg">
<path d="M36.2292 7.3042C38.9331 7.3042 41.125 9.66097 41.125 12.5682V25.2018C41.125 25.481 41.0218 25.7488 40.8382 25.9463L24.5783 43.429C22.3604 45.8136 18.7646 45.8136 16.5467 43.429L7.52686 33.7308C5.30901 31.3462 5.30901 27.4799 7.52686 25.0953L23.7868 7.61256C23.9704 7.41512 24.2195 7.3042 24.4792 7.3042L36.2292 7.3042ZM39.1667 24.7657V12.5682C39.1667 10.8239 37.8515 9.4098 36.2292 9.4098H24.8848L8.91161 26.5841C7.45853 28.1465 7.45853 30.6796 8.91161 32.2419L17.9315 41.9401C19.3845 43.5024 21.7405 43.5024 23.1935 41.9401L39.1667 24.7657ZM33.2917 17.8322C33.2917 16.6693 32.4149 15.7266 31.3333 15.7266C30.2518 15.7266 29.375 16.6693 29.375 17.8322C29.375 18.9951 30.2518 19.9378 31.3333 19.9378C32.4149 19.9378 33.2917 18.9951 33.2917 17.8322ZM35.25 17.8322C35.25 20.158 33.4964 22.0434 31.3333 22.0434C29.1702 22.0434 27.4167 20.158 27.4167 17.8322C27.4167 15.5064 29.1702 13.621 31.3333 13.621C33.4964 13.621 35.25 15.5064 35.25 17.8322Z" fill="#626262"/>
</svg>
