<svg width="35" height="39" viewBox="0 0 35 39" fill="none" xmlns="http://www.w3.org/2000/svg">
<g clip-path="url(#clip0_71_97)">
<path d="M3.11357 33.6188C1.40828 33.6188 0.000732422 32.1345 0.000732422 30.2718V4.16578C0.000732422 2.33224 1.38121 0.818848 3.11357 0.818848H25.9591C27.6644 0.818848 29.072 2.30314 29.072 4.16578V16.5058L28.9637 16.4767C28.5035 16.3311 28.0704 16.2729 27.5832 16.2729H27.5561L27.5291 16.1856H27.4479V4.16578C27.4479 3.32177 26.7441 2.56507 25.9591 2.56507H3.11357C2.3286 2.56507 1.62482 3.32177 1.62482 4.16578V30.2718C1.62482 31.1158 2.3286 31.8725 3.11357 31.8725H15.1048L15.1318 31.9016C15.4296 32.3382 15.2672 32.6583 15.1589 32.8912C15.0506 33.0949 14.9965 33.2404 15.186 33.4441L15.3484 33.6188H3.11357Z" fill="#626262"/>
<path d="M4.87291 7.22191C4.57516 7.22191 4.33154 6.81446 4.33154 6.3197C4.33154 5.82493 4.57516 5.41748 4.87291 5.41748H14.0761C14.3738 5.41748 14.6175 5.82493 14.6175 6.3197C14.6175 6.81446 14.3738 7.22191 14.0761 7.22191H4.87291Z" fill="#626262"/>
<path d="M14.0761 5.50439H4.87291C4.62929 5.50439 4.41275 5.85364 4.41275 6.3193C4.41275 6.78496 4.62929 7.1342 4.87291 7.1342H14.0761C14.3197 7.1342 14.5362 6.78496 14.5362 6.3193C14.5362 5.85364 14.3468 5.50439 14.0761 5.50439ZM4.76463 11.8781C4.52102 11.8781 4.33154 11.4998 4.33154 10.9759C4.33154 10.452 4.52102 10.0737 4.76463 10.0737H11.3693C11.6129 10.0737 11.8024 10.452 11.8024 10.9759C11.8024 11.4998 11.6129 11.8781 11.3693 11.8781H4.76463Z" fill="#626262"/>
<path d="M11.3694 10.161H4.76476C4.57528 10.161 4.43994 10.5102 4.43994 10.9759C4.43994 11.4415 4.57528 11.7908 4.76476 11.7908H11.3694C11.5589 11.7908 11.6942 11.4415 11.6942 10.9759C11.6942 10.5102 11.5318 10.161 11.3694 10.161ZM25.0118 38.3043C24.0644 38.3043 23.0358 38.2461 21.7094 38.1297C19.7876 37.955 18.0282 36.9946 16.3229 35.2193L8.63551 27.1285C6.84901 25.2658 6.7678 22.8211 8.36483 20.9585C9.04153 20.2018 10.0972 19.7361 11.2341 19.7361C12.3709 19.7361 13.3995 20.2018 14.0491 21.0167C14.0762 21.0458 14.1303 21.104 14.2386 21.1622C14.2657 21.1913 14.3198 21.2204 14.3469 21.2495V17.3496V15.4288C14.3469 13.9445 14.3469 12.4311 14.374 10.9468C14.401 8.73489 15.9981 7.04688 18.1094 7.04688H18.1364C20.1666 7.04688 21.7094 8.64758 21.8177 10.8304C21.8448 11.3251 21.8448 11.849 21.8177 12.3729V13.0422H22.2237C23.6313 13.0422 24.714 13.5661 25.499 14.6721C25.5261 14.7303 25.6885 14.7885 25.905 14.7885C25.9862 14.7885 26.0674 14.7885 26.1216 14.7594C26.3652 14.7303 26.6088 14.7012 26.8253 14.7012C27.9081 14.7012 28.8554 15.1668 29.6675 16.1272C29.8028 16.2728 30.1006 16.3892 30.3713 16.3892H30.4795C30.669 16.3601 30.8855 16.331 31.075 16.331C33.1051 16.331 34.7292 17.8735 34.7563 19.8816C34.8375 23.5778 34.8916 27.2158 34.5127 30.8246C34.0525 35.1902 31.8871 37.5185 27.6644 38.1006C26.8795 38.2461 25.9862 38.3043 25.0118 38.3043ZM11.0987 21.395C10.5303 21.395 9.98892 21.6279 9.5829 22.0353C9.09567 22.5592 8.82499 23.1703 8.82499 23.8397C8.82499 24.5382 9.12274 25.2367 9.6641 25.8188L10.6927 26.9247C12.9393 29.3112 15.2672 31.756 17.5951 34.1716C18.7319 35.3357 20.0312 36.0924 21.4658 36.3834C22.5756 36.6163 23.6854 36.7327 24.7681 36.7327C25.7426 36.7327 26.7171 36.6454 27.6644 36.4417C31.1021 35.7723 32.672 33.9969 32.9969 30.5627C33.2946 27.274 33.2676 23.8979 33.2134 20.6383V20.1145C33.1863 18.9212 32.4014 18.1063 31.2916 18.1063C30.9938 18.1063 30.7231 18.1645 30.4254 18.2809V22.8211C30.4254 23.2286 30.4254 24.0144 29.6675 24.0144H29.6404C29.3968 24.0144 29.2073 23.9562 29.0991 23.8106C28.8825 23.5778 28.8554 23.1412 28.8554 22.792V22.6174C28.8554 21.2786 28.8825 19.9107 28.8554 18.5429C28.8284 17.3496 28.0434 16.5056 26.9607 16.5056C26.69 16.5056 26.4193 16.5638 26.1757 16.6511V21.3659C26.1757 21.7734 26.0945 22.0935 25.905 22.2972C25.7697 22.4428 25.5802 22.5301 25.3366 22.5301H25.3095C24.5787 22.501 24.5787 21.6861 24.5787 21.395V19.4742V17.0295C24.5787 16.4765 24.3621 15.8944 23.9561 15.4579C23.5771 15.0504 23.0628 14.8176 22.5486 14.8176C22.332 14.8176 22.0884 14.8467 21.8718 14.934V17.0295C21.8718 18.019 21.8718 19.0667 21.8177 20.0854C21.7906 20.3473 21.5741 20.551 21.3576 20.7547C21.2763 20.842 21.1681 20.9294 21.0869 21.0167L21.0057 21.104L20.9515 20.9585C20.8974 20.8712 20.8162 20.7838 20.735 20.7256C20.5726 20.5219 20.3831 20.3182 20.2748 20.0854C20.1936 19.9107 20.2207 19.707 20.2207 19.5324V19.2996V16.7675C20.2207 14.9049 20.2207 12.984 20.1936 11.0923C20.1936 9.69532 19.3545 8.764 18.1364 8.73489C16.8101 8.73489 15.9168 9.75352 15.9168 11.2378V24.9457L15.565 25.1785L15.5379 25.1203C15.2943 24.8293 15.0236 24.5382 14.78 24.2472C14.2116 23.6069 13.6161 22.9084 13.0206 22.2681C12.4792 21.7152 11.8025 21.395 11.0987 21.395Z" fill="#626262"/>
</g>
<defs>
<clipPath id="clip0_71_97">
<rect width="35" height="37.632" fill="white" transform="translate(0 0.745605)"/>
</clipPath>
</defs>
</svg>
