<svg width="41" height="46" viewBox="0 0 41 46" fill="none" xmlns="http://www.w3.org/2000/svg">
<path d="M20.5 28.3961C23.3305 28.3961 25.625 25.8688 25.625 22.7513C25.625 19.6337 23.3305 17.1064 20.5 17.1064C17.6695 17.1064 15.375 19.6337 15.375 22.7513C15.375 25.8688 17.6695 28.3961 20.5 28.3961Z" stroke="#626262" stroke-width="2"/>
<path d="M6.25468 20.1906C7.06195 20.7492 7.58137 21.701 7.58137 22.7509C7.58136 23.801 7.06194 24.7527 6.25468 25.3114C5.70535 25.6915 5.35142 25.9953 5.09961 26.3568C4.54797 27.1488 4.30452 28.1494 4.4228 29.1389C4.5115 29.881 4.90949 30.6403 5.70547 32.1589C6.50147 33.6774 6.89946 34.4366 7.43862 34.8923C8.15753 35.4999 9.06612 35.768 9.96453 35.6378C10.3746 35.5783 10.7904 35.3926 11.3639 35.0588C12.2069 34.5681 13.215 34.5485 14.0408 35.0737C14.8665 35.5989 15.3551 36.5701 15.3907 37.6195C15.4149 38.3336 15.4769 38.8232 15.6352 39.2441C15.9819 40.1661 16.6471 40.8988 17.4842 41.2807C18.1122 41.5671 18.9081 41.5671 20.5001 41.5671C22.0921 41.5671 22.888 41.5671 23.516 41.2807C24.3531 40.8988 25.0183 40.1661 25.3651 39.2441C25.5233 38.8232 25.5853 38.3336 25.6096 37.6197C25.6451 36.5701 26.1337 35.5989 26.9595 35.0737C27.7851 34.5487 28.7932 34.5683 29.6361 35.059C30.2098 35.3928 30.6256 35.5785 31.0356 35.638C31.934 35.7684 32.8426 35.5001 33.5615 34.8925C34.1007 34.437 34.4987 33.6775 35.2948 32.1591C35.6491 31.483 35.9246 30.9575 36.129 30.5168M34.7454 25.3116C33.9382 24.7529 33.4189 23.8012 33.4187 22.7513C33.4187 21.7011 33.9382 20.7492 34.7454 20.1906C35.2948 19.8105 35.6486 19.5066 35.9004 19.1452C36.452 18.3534 36.6954 17.3526 36.5772 16.3631C36.4886 15.6209 36.0905 14.8617 35.2944 13.3432C34.4985 11.8246 34.1005 11.0654 33.5613 10.6097C32.8425 10.0021 31.9338 9.73397 31.0354 9.86423C30.6254 9.92371 30.2096 10.1093 29.6361 10.4432C28.793 10.9339 27.7849 10.9535 26.9593 10.4284C26.1337 9.90331 25.6451 8.93203 25.6096 7.88272C25.5853 7.16863 25.5233 6.67909 25.3651 6.25814C25.0183 5.33606 24.3531 4.60346 23.516 4.22151C22.888 3.93506 22.0921 3.93506 20.5001 3.93506C18.9081 3.93506 18.1122 3.93506 17.4842 4.22151C16.6471 4.60346 15.9819 5.33606 15.6352 6.25814C15.4769 6.67906 15.4149 7.16855 15.3907 7.88255C15.355 8.93196 14.8664 9.90333 14.0407 10.4284C13.215 10.9535 12.207 10.9338 11.364 10.4431C10.7905 10.1093 10.3746 9.92362 9.96455 9.86414C9.06614 9.73388 8.15754 10.002 7.43864 10.6096C6.89947 11.0653 6.50148 11.8246 5.70549 13.3431C5.35113 14.0191 5.07564 14.5446 4.8712 14.9852" stroke="#626262" stroke-width="2" stroke-linecap="round"/>
</svg>
